# xmcd
#
# Track frame offsets:
#	150
#	14351
#	27152
#	40185
#	51813
#	65137
#	79151
#	92970
#	106905
#	121423
#	133939
#	147666
#	160549
#	174390
#	187309
#	200624
#	214126
#	226112
#	240795
#	254478
#	266068
#	279848
#	292211
#	307207
#
# Disc length: 4288 seconds
#
# Revision: 1
# Processed by: cddbd v1.4PL0 Copyright (c) Steve Scherf et al.
# Submitted via: audiograbber 1.81.02
#
DISCID=6c10be18
DTITLE=Ella Fitzgerald - Taking A Chance On Love
DYEAR=2003
DGENRE=Blues
TTITLE0=Taking A Chance On Love
TTITLE1=Shake Down The Stars
TTITLE2=After I Say I'm Sorry
TTITLE3=Three Little Words
TTITLE4=Out Of Nowhere
TTITLE5=Baby What Else Can I Do
TTITLE6=Moon Ray
TTITLE7=Five O'Clock Whistle
TTITLE8=The Starlit Hour
TTITLE9=Cabin In The Sky
TTITLE10=Sing Song Swing
TTITLE11=Sugar Blues
TTITLE12=The One I Love
TTITLE13=Saving Myself For You
TTITLE14=I Was Doing Alright
TTITLE15=It's Wonderful
TTITLE16=I'm The Lonliest Gal In Town
TTITLE17=The Dipsy Doodle
TTITLE18=What's The Matter With Me
TTITLE19=Baby Won't You Please Come Home
TTITLE20=If It Weren't For You
TTITLE21=Deedle-De-Dum
TTITLE22=One Side Of Me
TTITLE23=Stairway To The Stars
EXTD=
EXTT0=
EXTT1=
EXTT2=
EXTT3=
EXTT4=
EXTT5=
EXTT6=
EXTT7=
EXTT8=
EXTT9=
EXTT10=
EXTT11=
EXTT12=
EXTT13=
EXTT14=
EXTT15=
EXTT16=
EXTT17=
EXTT18=
EXTT19=
EXTT20=
EXTT21=
EXTT22=
EXTT23=
PLAYORDER=
